<svg xmlns="http://www.w3.org/2000/svg" xmlns:xlink="http://www.w3.org/1999/xlink" width="426.306" height="61.642" viewBox="0 0 426.306 61.642">
  <defs>
    <clipPath id="clip-path">
      <rect id="Rectangle_140030" data-name="Rectangle 140030" width="50.137" height="61.642" fill="none"/>
    </clipPath>
  </defs>
  <g id="Logo" transform="translate(13724.306 -4972.131)">
    <text id="Logo-2" data-name="Logo" transform="translate(-13662 5002)" fill="#43425d" font-size="15" font-family="Avenir-Black, Avenir" font-weight="800" letter-spacing="0.2em"><tspan x="0" y="0">Tailored Treatment Recommendation </tspan></text>
    <g id="Group_160767" data-name="Group 160767" transform="translate(-13724.306 4972.131)">
      <g id="Group_160766" data-name="Group 160766" clip-path="url(#clip-path)">
        <path id="Path_83182" data-name="Path 83182" d="M32.783,18.97a12.42,12.42,0,0,1,2.262-1.8,12.127,12.127,0,0,0-1.954-3.907l3.444-3.444.874.874a1.864,1.864,0,0,0,2.57,0,1.739,1.739,0,0,0,0-2.519L35.713,3.907a1.739,1.739,0,0,0-2.519,0,1.739,1.739,0,0,0,0,2.519l.874.874-3.444,3.444a12.628,12.628,0,0,0-5.6-2.313V3.547h1.234A1.714,1.714,0,0,0,27.9,1.8,1.788,1.788,0,0,0,26.1,0H20.136a1.788,1.788,0,0,0-1.8,1.8,1.757,1.757,0,0,0,1.8,1.8H21.37V8.482A12.828,12.828,0,0,0,15.715,10.8L12.271,7.351l.874-.874a1.739,1.739,0,0,0,0-2.519,1.739,1.739,0,0,0-2.519,0L6.358,8.225a1.739,1.739,0,0,0,0,2.519,1.864,1.864,0,0,0,2.57,0L9.8,9.871l3.444,3.444a12.136,12.136,0,0,0-2.365,5.6H6V17.685a1.746,1.746,0,0,0-1.8-1.748,1.778,1.778,0,0,0-1.8,1.748V23.7a1.823,1.823,0,0,0,1.851,1.748,1.788,1.788,0,0,0,1.8-1.8V22.414h4.884a12.828,12.828,0,0,0,2.313,5.655L9.8,31.514l-.874-.874A1.781,1.781,0,1,0,6.41,33.159l4.267,4.267a1.785,1.785,0,0,0,1.285.514,1.6,1.6,0,0,0,1.234-.514,1.739,1.739,0,0,0,0-2.519l-.874-.874,3.444-3.444a12.127,12.127,0,0,0,3.907,1.954,10.547,10.547,0,0,1,1.8-2.262Zm-13.623,1.7a1.821,1.821,0,0,1-1.8,1.8,1.788,1.788,0,0,1-1.8-1.8,7.569,7.569,0,0,1,7.557-7.557,1.778,1.778,0,0,1,1.8,1.748,1.821,1.821,0,0,1-1.8,1.8,4.038,4.038,0,0,0-3.958,4.01" transform="translate(-1.166)" fill="#034162"/>
        <path id="Path_83183" data-name="Path 83183" d="M66.337,39.213a9.4,9.4,0,0,0-13.264,0L41.713,50.574a9.4,9.4,0,0,0,0,13.264,9.309,9.309,0,0,0,13.264,0L66.337,52.476a9.4,9.4,0,0,0,0-13.264M52.457,61.318a5.816,5.816,0,0,1-8.225-8.225l4.524-4.524,8.225,8.225ZM63.921,43.891a1.614,1.614,0,0,1-2.262,0,2.761,2.761,0,0,0-3.907,0,1.585,1.585,0,0,1-2.313,0,1.614,1.614,0,0,1,0-2.262,6.051,6.051,0,0,1,8.482,0,1.614,1.614,0,0,1,0,2.262" transform="translate(-18.938 -17.724)" fill="#0c888d"/>
      </g>
    </g>
  </g>
</svg>
